<?xml version="1.0" encoding="UTF-8"?>
<svg version="1.1" xmlns="http://www.w3.org/2000/svg" width="2781" height="581">
<path d="M0 0 C-0.59101977 9.06554332 -1.54701981 18.05655717 -2.72949219 27.06054688 C-3.00418719 29.15695566 -3.27191101 31.25418042 -3.5390625 33.3515625 C-3.71313447 34.69536531 -3.88759852 36.0391174 -4.0625 37.3828125 C-4.29646484 39.18322998 -4.29646484 39.18322998 -4.53515625 41.02001953 C-5 44 -5 44 -6 47 C-4.72256534 46.99585193 -4.72256534 46.99585193 -3.41932392 46.99162006 C17.39260739 46.92509545 38.20452015 46.87559144 59.01653576 46.84456348 C69.0814568 46.82915618 79.14630645 46.80818541 89.21118164 46.77368164 C97.99331236 46.74358989 106.77539133 46.72438053 115.55757219 46.71773452 C120.198966 46.71385542 124.84021189 46.70487035 129.48155785 46.68280983 C166.62625986 46.51310466 166.62625986 46.51310466 184 50 C185.80125587 50.35556976 185.80125587 50.35556976 187.63890076 50.71832275 C190.4506422 51.30103698 193.22096915 51.96573935 196 52.6875 C196.99290039 52.94241211 197.98580078 53.19732422 199.00878906 53.45996094 C253.57560742 67.99143627 298.67748303 104.58943798 327 153 C352.00897081 197.288012 360.79221172 252.30785532 349 302 C348.75862305 303.02931641 348.51724609 304.05863281 348.26855469 305.11914062 C344.65321989 320.06252444 339.64928265 334.14450073 333 348 C332.63648438 348.75748535 332.27296875 349.5149707 331.8984375 350.29541016 C326.56525546 361.21836169 320.09503043 371.14652783 313 381 C317.30317612 386.14249007 321.8134383 390.9521007 326.56591797 395.67944336 C327.29831192 396.41198334 328.03070587 397.14452332 328.78529358 397.89926147 C331.18522657 400.29850275 333.58867255 402.69419129 335.9921875 405.08984375 C337.6653493 406.76113873 339.33828915 408.43265592 341.01101685 410.10438538 C345.39817939 414.48774351 349.78833757 418.86808925 354.17913818 423.24780273 C358.6655185 427.72392418 363.14904292 432.20290426 367.6328125 436.68164062 C376.41909099 445.45721843 385.2085386 454.22961471 394 463 C397.47425512 461.35874246 399.74649635 459.50147484 402.47387695 456.76904297 C403.35191483 455.89408173 404.2299527 455.01912048 405.13459778 454.11764526 C406.08600364 453.15933607 407.03722684 452.20084549 407.98828125 451.2421875 C408.97434043 450.25493461 409.96077133 449.26805286 410.94755554 448.28152466 C413.01592197 446.21159502 415.0808911 444.13835479 417.14331055 442.0625 C419.76728855 439.42163291 422.39769916 436.78729446 425.03051472 434.15524101 C427.07018517 432.11529634 429.10722111 430.07273752 431.14342308 428.02933121 C432.11113294 427.0584707 433.07942184 426.08818695 434.04833412 425.11852646 C439.01269355 420.14614018 443.84560598 415.12874704 448.42451477 409.79885864 C450.88072916 406.99440043 453.5039196 404.3716592 456.15234375 401.75 C456.96983849 400.93462769 456.96983849 400.93462769 457.80384827 400.1027832 C459.51269217 398.39945185 461.22501197 396.69966674 462.9375 395 C464.11026009 393.83226626 465.28278798 392.66429926 466.45507812 391.49609375 C469.30071689 388.66136766 472.14947453 385.82981176 475 383 C473.90294209 381.27045366 472.80513856 379.54138025 471.70703125 377.8125 C471.09577393 376.84957031 470.4845166 375.88664062 469.85473633 374.89453125 C468.15732768 372.24552809 466.42796355 369.62080946 464.6875 367 C453.24952761 348.89415132 444.99184085 329.67707038 439.6875 308.9375 C439.45708008 308.04200439 439.22666016 307.14650879 438.98925781 306.22387695 C435.05106332 289.88557449 433.43729395 273.64884015 433.5625 256.875 C433.56756058 255.54470261 433.56756058 255.54470261 433.57272339 254.18753052 C433.88540562 197.10352146 456.99309047 144.70473407 497.44970703 104.56152344 C535.782231 67.47214718 587.52507102 46.76135979 640.71899414 46.88647461 C642.40502928 46.88675704 644.09106454 46.88659766 645.77709961 46.8860321 C650.33221739 46.88574631 654.88730861 46.89160781 659.44242024 46.89860606 C664.21099667 46.90487588 668.97957377 46.90544627 673.74815369 46.90663147 C682.76830668 46.90973411 691.78844748 46.91793307 700.80859512 46.92798096 C711.08188361 46.93917529 721.3551727 46.94466091 731.62846577 46.94967639 C752.75231882 46.9601166 773.87615517 46.97844878 795 47 C793.02 31.49 791.04 15.98 789 0 C792.96150021 1.58460009 795.77169268 3.01679119 799.24609375 5.34375 C800.73774048 6.33942993 800.73774048 6.33942993 802.25952148 7.35522461 C803.30825439 8.06300049 804.3569873 8.77077637 805.4375 9.5 C806.52426025 10.22904541 807.61102051 10.95809082 808.73071289 11.70922852 C815.2787864 16.11747903 821.73719733 20.61855364 828.12890625 25.25 C833.47237711 29.08255841 838.93268174 32.74749289 844.375 36.4375 C844.92253937 36.80878021 845.47007874 37.18006042 846.03421021 37.56259155 C848.72189448 39.38485728 851.40976867 41.20684277 854.09765625 43.02880859 C857.86649606 45.5885001 861.62356414 48.16489146 865.375 50.75 C871.07579234 54.67775813 876.7851349 58.5927412 882.5 62.5 C889.69888193 67.42277017 896.89083569 72.3554235 904.07421875 77.30078125 C906.8024199 79.17843769 909.53473823 81.04992718 912.26953125 82.91796875 C918.9491135 87.48539388 925.58870676 92.05796146 932 97 C918.49878016 113.05417777 879.59986601 119.34916942 860 123 C858.80246094 123.23203125 857.60492187 123.4640625 856.37109375 123.703125 C846.14942553 125.36133305 835.76559441 125.41688822 825.43164062 125.65917969 C823.54541992 125.70606934 823.54541992 125.70606934 821.62109375 125.75390625 C820.4911499 125.77783447 819.36120605 125.8017627 818.19702148 125.82641602 C815.06402601 125.99652367 812.08158186 126.42254885 809 127 C809.61746094 127.83660156 810.23492188 128.67320312 810.87109375 129.53515625 C833.15039478 160.01398507 847.29846038 194.43717289 852 232 C852.11214844 232.86496094 852.22429688 233.72992188 852.33984375 234.62109375 C856.14027992 270.49096389 850.09529954 306.939129 836 340 C835.68836914 340.7415332 835.37673828 341.48306641 835.05566406 342.24707031 C826.6957965 361.87727785 814.56410877 380.05387364 800.10546875 395.70703125 C798.23791796 397.74089454 796.4601578 399.82147023 794.6875 401.9375 C786.30469368 411.51509711 776.28457701 419.56486795 766 427 C765.44006348 427.40573242 764.88012695 427.81146484 764.30322266 428.22949219 C719.53133301 460.26203281 662.37749075 472.47978003 608.23388672 463.54345703 C583.39277878 459.22705019 561.43067636 450.32742063 539 439 C534.47502915 442.78966539 530.15607832 446.69984508 525.99513245 450.88461304 C525.43378835 451.44510271 524.87244426 452.00559238 524.29408973 452.58306658 C522.43399765 454.44152572 520.57747683 456.30350992 518.72094727 458.16552734 C517.38024526 459.50651172 516.03932242 460.84727535 514.69819641 462.18783569 C511.07251747 465.81322861 507.44992252 469.44168885 503.82788587 473.0707202 C500.03670619 476.86816579 496.24268033 480.66276563 492.44895935 484.45767212 C485.2719093 491.63782595 478.09741145 498.82052432 470.92383379 506.00414717 C462.75410194 514.18506978 454.58151868 522.36314134 446.4086982 530.54097819 C429.60263081 547.35748838 412.8001359 564.17756425 396 581 C391.92377216 579.37883169 389.19301965 576.46636839 386.16607666 573.40658569 C385.58687808 572.82909596 385.0076795 572.25160623 384.41092944 571.65661681 C382.47001375 569.71899717 380.53633595 567.77431237 378.60253906 565.82958984 C377.21323372 564.43972042 375.82348795 563.05029113 374.43333435 561.66127014 C370.65853867 557.88704906 366.8899479 554.10668643 363.12242222 550.32521009 C359.18485637 546.37515493 355.24163873 542.43075017 351.29901123 538.48574829 C343.83298665 531.01350365 336.37207562 523.53617467 328.91297793 516.05701602 C320.4212205 507.54291595 311.9237939 499.03448366 303.42588091 490.52652812 C285.94426158 473.02399489 268.46979139 455.51433848 251 438 C250.46141861 438.25594437 249.92283722 438.51188873 249.36793518 438.77558899 C246.89275758 439.95135353 244.41708575 441.12607389 241.94140625 442.30078125 C241.09437134 442.7033313 240.24733643 443.10588135 239.37463379 443.52062988 C187.91936613 467.92555408 130.12407569 474.00235937 75.60107422 455.25146484 C49.0449125 445.71431063 25.04610073 432.25435983 4.2578125 413.0703125 C2.23524746 411.21571134 0.16516016 409.44964839 -1.9375 407.6875 C-38.38101552 375.79025805 -59.08884022 327.19507648 -65 280 C-65.19722656 278.515 -65.19722656 278.515 -65.3984375 277 C-71.1917829 223.13754544 -54.42114873 169.80194816 -22 127 C-25.36915088 125.99082367 -28.48735137 125.84718163 -31.99609375 125.7890625 C-70.95957818 124.9353073 -107.04891433 116.64380803 -142 99 C-142 98.01 -142 97.02 -142 96 C-139.97143555 94.31762695 -139.97143555 94.31762695 -137.13671875 92.48828125 C-135.58694336 91.47411133 -135.58694336 91.47411133 -134.00585938 90.43945312 C-132.91080078 89.73755859 -131.81574219 89.03566406 -130.6875 88.3125 C-123.5745491 83.69975352 -116.57979468 79.01698173 -109.75317383 73.98901367 C-103.95471753 69.79995422 -97.93527335 65.9316966 -91.9609375 62 C-86.12742166 58.14113681 -80.42356547 54.1581551 -74.78662109 50.01806641 C-69.873674 46.46011821 -64.83897612 43.08218578 -59.8125 39.6875 C-57.59711519 38.18699581 -55.38259936 36.68521077 -53.16796875 35.18359375 C-52.10626465 34.46413574 -51.04456055 33.74467773 -49.95068359 33.00341797 C-46.16545604 30.43337186 -42.39221948 27.84634675 -38.625 25.25 C-31.98872112 20.67659598 -25.33821334 16.12430943 -18.68041992 11.58227539 C-13.64499552 8.14236729 -8.65030654 4.65654939 -3.71484375 1.07421875 C-2 0 -2 0 0 0 Z M53 163 C52.26136719 163.67417969 51.52273437 164.34835938 50.76171875 165.04296875 C33.50380662 181.38127633 23.39979221 202.42485859 17 225 C16.63777344 226.26585937 16.27554688 227.53171875 15.90234375 228.8359375 C11.24094591 248.82574591 12.54753036 271.3161264 18 291 C18.49113281 292.8871875 18.49113281 292.8871875 18.9921875 294.8125 C23.8781918 311.36071894 32.73362585 326.98960508 44 340 C44.43280273 340.50821289 44.86560547 341.01642578 45.31152344 341.54003906 C63.01850029 362.2218915 85.98584088 375.56402677 112 383 C113.19238281 383.34289062 114.38476562 383.68578125 115.61328125 384.0390625 C135.61855922 388.71789254 159.33666866 387.71125026 179 382 C179.72783691 381.79101074 180.45567383 381.58202148 181.20556641 381.36669922 C201.46186866 375.3345414 218.69989184 364.47569663 234 350 C234.82371094 349.24074219 235.64742187 348.48148438 236.49609375 347.69921875 C259.53784424 325.73586532 273.21141381 293.640211 274.203125 261.94140625 C274.3766343 249.99136774 273.68654596 238.65859568 271 227 C270.83902832 226.30100586 270.67805664 225.60201172 270.51220703 224.88183594 C262.50667824 191.67542543 240.73760719 162.8146743 211.7578125 145.0078125 C160.01751046 114.10674586 96.63670019 121.78360618 53 163 Z M544.88671875 170.38916016 C521.29347988 197.46776386 511.30798641 231.47984365 513 267 C516.01961458 303.16106678 534.25315488 335.20440339 561.77539062 358.50292969 C575.38057866 369.36375693 591.31062677 377.20785542 608 382 C609.08595459 382.31541748 609.08595459 382.31541748 610.19384766 382.63720703 C643.69939193 391.89502861 679.05990178 385.62218187 709.09033203 369.10058594 C738.58111229 352.10436535 760.25288509 322.92456701 769.3125 290.25 C778.02175345 256.3587875 773.42300972 220.78526262 756.09765625 190.4296875 C750.5178237 181.08536989 743.44750352 172.89096257 736 165 C735.31550781 164.25105469 734.63101563 163.50210938 733.92578125 162.73046875 C711.30945919 138.86000683 677.85595146 126.55174699 645.44628906 125.64868164 C606.72613095 125.28318385 570.75895092 141.65356132 544.88671875 170.38916016 Z " fill="#F4C237" transform="translate(143,0)"/>
<path d="M0 0 C0.88814392 0.00182281 1.77628784 0.00364563 2.69134521 0.00552368 C17.23268536 0.05549784 31.47010385 0.74375003 45.8125 3.3125 C46.7823584 3.48410645 47.7522168 3.65571289 48.75146484 3.83251953 C68.62291236 7.4771925 87.07617115 13.6345587 104.8125 23.3125 C105.86824219 23.87710938 106.92398437 24.44171875 108.01171875 25.0234375 C145.64348021 45.97916349 169.45845772 82.90980126 181.8125 123.3125 C190.10532727 152.49974179 193.24118525 182.10035519 193.125 212.375 C193.12284485 213.39575623 193.1206897 214.41651245 193.11846924 215.46820068 C192.93767465 269.10985157 182.84891808 325.30586865 145.8125 366.3125 C145.12542969 367.13105469 144.43835937 367.94960938 143.73046875 368.79296875 C138.68976087 374.75763531 132.98978432 379.55616125 126.8125 384.3125 C125.53246094 385.31603516 125.53246094 385.31603516 124.2265625 386.33984375 C103.42391383 402.1136239 78.88354312 411.47955174 53.4375 416.5 C52.66100098 416.65500977 51.88450195 416.81001953 51.08447266 416.96972656 C35.21824592 419.90803525 19.2901082 420.69217702 3.1875 420.625 C2.2735144 420.62317719 1.35952881 420.62135437 0.41784668 420.61947632 C-44.91334875 420.46788514 -91.04568855 410.59955571 -126.1875 380.3125 C-127.14269531 379.49136719 -128.09789062 378.67023438 -129.08203125 377.82421875 C-169.58705277 342.25149475 -184.69525194 287.43897286 -188.1875 235.3125 C-188.33251928 231.38500416 -188.37349578 227.46119998 -188.390625 223.53125 C-188.39763931 222.4471283 -188.40465363 221.36300659 -188.41188049 220.24603271 C-188.42927957 216.76814569 -188.43573233 213.29042894 -188.4375 209.8125 C-188.43817474 208.62442749 -188.43884949 207.43635498 -188.43954468 206.21228027 C-188.42374926 188.72276941 -188.10560401 171.59535198 -185.1875 154.3125 C-185.01057617 153.24837891 -184.83365234 152.18425781 -184.65136719 151.08789062 C-177.06965726 106.95945806 -158.96333803 62.94489478 -122.1875 35.3125 C-121.2490625 34.59707031 -120.310625 33.88164063 -119.34375 33.14453125 C-99.11355072 18.41506915 -76.28282309 9.67769563 -51.9375 4.4375 C-51.05344482 4.24623535 -50.16938965 4.0549707 -49.25854492 3.85791016 C-33.01512892 0.63759846 -16.51542075 -0.07116867 0 0 Z M-72.1875 108.3125 C-75.44671772 112.15297948 -78.36839701 116.14022757 -81.1875 120.3125 C-81.79207031 121.20066406 -82.39664062 122.08882812 -83.01953125 123.00390625 C-99.60671779 149.32623613 -103.62772176 182.03363542 -103.5 212.5 C-103.49817719 213.40325012 -103.49635437 214.30650024 -103.49447632 215.23712158 C-103.44958492 228.44981537 -103.12479148 241.37489974 -100.1875 254.3125 C-99.91413818 255.53501465 -99.91413818 255.53501465 -99.63525391 256.78222656 C-93.47642715 283.52707326 -81.67280959 309.82133832 -58.109375 325.5546875 C-30.4734369 342.18058609 1.06976767 346.15844246 32.375 338.6875 C54.4886867 332.30900288 72.2871413 318.49644255 83.96875 298.65625 C99.47442806 270.53578301 104.27128967 237.12089978 102.8125 205.3125 C102.77141113 204.38953125 102.73032227 203.4665625 102.68798828 202.515625 C101.05480683 169.6224114 95.13478347 134.86264931 72.8125 109.3125 C72.27238281 108.62929687 71.73226562 107.94609375 71.17578125 107.2421875 C56.39031328 88.98410357 33.62893016 81.26495463 11.06494141 78.81884766 C-20.05515261 75.79905116 -50.256017 85.87393069 -72.1875 108.3125 Z " fill="#FFFFFF" transform="translate(1328.1875,50.6875)"/>
<path d="M0 0 C0.79059311 -0.0049649 1.58118622 -0.00992981 2.39573669 -0.01504517 C5.01277536 -0.02965699 7.6297534 -0.03646739 10.24682617 -0.04199219 C12.06662498 -0.04774474 13.88642376 -0.05350246 15.70622253 -0.05926514 C19.52355227 -0.06977254 23.34086096 -0.07561682 27.15820312 -0.07910156 C32.04409959 -0.08458369 36.92971701 -0.10860678 41.81552601 -0.13707352 C45.57566636 -0.15571939 49.33573979 -0.16090655 53.09592247 -0.16243744 C54.89681205 -0.16546043 56.69770055 -0.17347704 58.49854469 -0.18662262 C61.0213796 -0.20372289 63.54353652 -0.20179323 66.06640625 -0.1953125 C67.1771199 -0.20913467 67.1771199 -0.20913467 68.31027222 -0.22323608 C73.02334356 -0.18540811 76.33065642 0.46475997 80.22729492 3.16113281 C83.28413533 7.78325334 84.32557292 12.94349792 85.52954102 18.28051758 C85.74049408 19.18720971 85.95144714 20.09390184 86.16879272 21.0280695 C86.87014425 24.05124088 87.56046948 27.07681824 88.25073242 30.10253906 C88.74943335 32.26335672 89.24876664 34.42402852 89.74868774 36.58456421 C91.09608888 42.41718802 92.43365664 48.25202646 93.76916504 54.08738327 C94.879922 58.93535424 95.99629307 63.78202499 97.11266708 68.62870502 C106.6641421 110.1009981 116.0764685 151.60520443 125.41479492 193.12597656 C125.60575367 193.97440502 125.79671242 194.82283348 125.99345779 195.69697189 C126.52389583 198.05458603 127.05349262 200.41238731 127.58276367 202.77026367 C127.73631506 203.45247766 127.88986645 204.13469164 128.04807091 204.83757877 C128.81758344 208.27100371 129.55418146 211.70747019 130.22729492 215.16113281 C132.46293682 210.23045607 133.55192686 205.04886104 134.78735352 199.80273438 C135.03580143 198.76227715 135.28424934 197.72181992 135.54022598 196.64983368 C136.07965936 194.3899075 136.61748285 192.12959658 137.1538887 189.86894989 C138.61052787 183.7330932 140.08094071 177.60053736 141.55053711 171.46777344 C142.00674533 169.56250948 142.00674533 169.56250948 142.47216988 167.61875534 C147.25695369 147.66190076 152.20162891 127.7441456 157.1394043 107.82470703 C158.28702181 103.1946922 159.43247103 98.56414963 160.57592773 93.93310547 C163.63982568 81.52550235 166.71663319 69.12133301 169.82950211 56.725914 C171.16203326 51.41965232 172.48861572 46.11208679 173.79992676 40.80053711 C175.03360835 35.80541524 176.28519572 30.81513028 177.55094528 25.82804108 C178.01223256 23.99796436 178.46714365 22.16626693 178.91521072 20.33290863 C179.52714746 17.83372206 180.16197096 15.34147202 180.80297852 12.84960938 C180.97527355 12.1224044 181.14756859 11.39519943 181.32508469 10.64595795 C182.56450273 5.9653279 184.12106847 3.72263857 188.22729492 1.16113281 C191.73264018 -0.00731561 194.8938525 0.00582601 198.54101562 0 C199.65375351 -0.00744736 199.65375351 -0.00744736 200.78897095 -0.01504517 C203.24368213 -0.02965249 205.69832866 -0.03646669 208.15307617 -0.04199219 C209.86077374 -0.04774519 211.56847129 -0.0535029 213.27616882 -0.05926514 C216.85810649 -0.06977131 220.44002175 -0.07561636 224.02197266 -0.07910156 C228.60520643 -0.08458293 233.18814263 -0.10860483 237.77128315 -0.13707352 C241.29980832 -0.15572532 244.8282622 -0.16090687 248.3568325 -0.16243744 C250.04607964 -0.16545918 251.73532566 -0.17347157 253.42452431 -0.18662262 C255.79170793 -0.20373523 258.15816973 -0.20179034 260.52539062 -0.1953125 C261.56597374 -0.20913467 261.56597374 -0.20913467 262.62757874 -0.22323608 C267.22918216 -0.1839189 270.45228338 0.48942703 274.22729492 3.16113281 C276.77344946 7.84724046 278.08382272 12.80127023 279.40600586 17.95703125 C279.60405508 18.71108435 279.8021043 19.46513744 280.00615501 20.24204063 C280.66335454 22.75016313 281.31258687 25.26027363 281.96166992 27.77050781 C282.4323672 29.57496468 282.90347772 31.37931379 283.37496948 33.18356323 C284.6504586 38.07138852 285.91845357 42.96112862 287.18457794 47.85138702 C287.97826964 50.91489506 288.77393293 53.97788424 289.57025146 57.04071045 C297.51961997 87.61959692 305.35978526 118.22613124 313.110672 148.85591125 C313.84444341 151.75511077 314.57898164 154.65411523 315.31359863 157.55310059 C316.47991979 162.15766386 317.64284042 166.76307431 318.80319595 171.36914444 C319.22264424 173.03301639 319.64286123 174.69669483 320.06402206 176.36013412 C323.66182564 190.57888302 326.96459734 204.86212187 330.22729492 219.16113281 C330.42521118 218.28003153 330.42521118 218.28003153 330.62712574 217.38113022 C332.09111444 210.86370576 333.55524839 204.34631394 335.01943398 197.82893372 C335.61056864 195.19762806 336.20164866 192.56631014 336.79268456 189.9349823 C340.20120595 174.76013011 343.61199607 159.58579533 347.03037286 144.41315985 C348.3633335 138.49648794 349.69578088 132.57970043 351.0280776 126.66287899 C351.36203873 125.17975591 351.69602224 123.69663787 352.03002787 122.21352482 C356.23576238 103.53764847 360.41233384 84.85597107 364.52635765 66.15962982 C365.82344944 60.27337687 367.12971818 54.38915404 368.43667698 48.50508499 C369.62156999 43.16521526 370.79047466 37.82216877 371.94764423 32.47622681 C372.65492891 29.22690451 373.37723879 25.98106784 374.10407448 22.73606873 C374.43019812 21.26535799 374.74998093 19.79322336 375.06265831 18.31959534 C375.483336 16.34023042 375.92888741 14.36620036 376.37573242 12.39257812 C376.73417236 10.75449188 376.73417236 10.75449188 377.09985352 9.08331299 C378.48925548 5.48216543 380.29693614 3.63715246 383.22729492 1.16113281 C386.86582166 -0.05170943 390.21137184 0.00567298 394 0 C394.79059311 -0.0049649 395.58118622 -0.00992981 396.39573669 -0.01504517 C399.01277536 -0.02965699 401.6297534 -0.03646739 404.24682617 -0.04199219 C406.06662498 -0.04774474 407.88642376 -0.05350246 409.70622253 -0.05926514 C413.52355227 -0.06977254 417.34086096 -0.07561682 421.15820312 -0.07910156 C426.04409959 -0.08458369 430.92971701 -0.10860678 435.81552601 -0.13707352 C439.57566636 -0.15571939 443.33573979 -0.16090655 447.09592247 -0.16243744 C448.89681205 -0.16546043 450.69770055 -0.17347704 452.49854469 -0.18662262 C455.0213796 -0.20372289 457.54353652 -0.20179323 460.06640625 -0.1953125 C461.1771199 -0.20913467 461.1771199 -0.20913467 462.31027222 -0.22323608 C467.02244788 -0.1854153 470.21890884 0.6886892 474.22729492 3.16113281 C477.06318463 6.27146347 477.24280425 7.79539425 477.06323242 12.0300293 C476.25303977 18.34399639 474.05105471 24.16566745 471.91479492 30.13378906 C471.46892085 31.40104633 471.02389385 32.66860191 470.57965088 33.93643188 C469.38762842 37.33078069 468.18388034 40.7208602 466.9778595 44.1102562 C465.71244596 47.67330122 464.45830705 51.24031134 463.20288086 54.80688477 C460.4501915 62.62051732 457.68227764 70.42870127 454.91067505 78.23564148 C453.87649023 81.14955986 452.84386459 84.06403011 451.8112793 86.97851562 C449.01740683 94.86387314 446.22338053 102.7491705 443.42260742 110.63208008 C437.8927212 126.2091469 432.48256353 141.82642415 427.09194946 157.45214844 C421.34980528 174.09222492 415.51967424 190.69888792 409.62075806 207.28399658 C405.54588529 218.74277636 401.50258951 230.21142925 397.52416992 241.70410156 C397.13636856 242.82433212 396.7485672 243.94456268 396.34901428 245.09873962 C394.48108162 250.49849567 392.61733886 255.89966582 390.75830078 261.30249023 C390.08521927 263.25277182 389.41212427 265.20304876 388.73901367 267.15332031 C388.44182434 268.02099533 388.14463501 268.88867035 387.83843994 269.78263855 C386.98618309 272.24899229 386.11020958 274.70560574 385.22729492 277.16113281 C384.76608749 278.4992099 384.76608749 278.4992099 384.29556274 279.86431885 C383.97373016 280.74617859 383.65189758 281.62803833 383.3203125 282.53662109 C383.03875809 283.32803497 382.75720367 284.11944885 382.46711731 284.93484497 C380.76282764 287.99515378 379.2520115 289.35892142 376.22729492 291.16113281 C373.24498927 291.73176216 370.32320409 291.71827292 367.29370117 291.69458008 C366.40367401 291.70319565 365.51364685 291.71181122 364.59664917 291.72068787 C361.66073353 291.74335232 358.72577196 291.73660852 355.78979492 291.72753906 C353.74625362 291.73277416 351.70271475 291.73905022 349.65917969 291.74632263 C345.3787091 291.75672753 341.09857095 291.75216357 336.81811523 291.73754883 C331.33329637 291.72035472 325.84952444 291.74386389 320.36482239 291.77903843 C316.14572206 291.80099956 311.92687278 291.79957414 307.70773315 291.79127312 C305.68552502 291.79045302 303.66329855 291.7973276 301.6411438 291.81204414 C298.81373729 291.82946762 295.98821923 291.81496643 293.16088867 291.79223633 C292.32645233 291.80392853 291.49201599 291.81562073 290.6322937 291.82766724 C286.48491038 291.75984061 284.71394077 291.5236944 281.29418945 288.97590637 C279.17160004 286.08528546 278.16429999 283.93683055 277.22338867 280.49365234 C276.90096191 279.3431842 276.57853516 278.19271606 276.24633789 277.00738525 C275.91005371 275.73812195 275.57376953 274.46885864 275.22729492 273.16113281 C274.85100261 271.78709934 274.47352072 270.41339121 274.0949707 269.03997803 C272.80055476 264.31378363 271.5449872 259.5775531 270.28979492 254.84082031 C269.81179039 253.04467345 269.33355339 251.24858845 268.85510254 249.45256042 C267.57462285 244.64339451 266.29717019 239.83342966 265.02041626 235.02327347 C263.68919911 230.00949728 262.35565534 224.99634007 261.0222168 219.9831543 C260.48009681 217.94493255 259.93798258 215.90670928 259.39587402 213.8684845 C258.9913073 212.3474005 258.9913073 212.3474005 258.5785675 210.79558754 C257.75559194 207.70080946 256.93299865 204.60592996 256.11047363 201.5110321 C252.72745576 188.78423715 249.33043037 176.06127456 245.91992188 163.34181976 C244.51821298 158.11314125 243.11837999 152.88396008 241.71835327 147.65483093 C240.61594033 143.53816232 239.51216617 139.42186761 238.40551758 135.30633545 C237.37564934 131.47623694 236.34917707 127.64524488 235.32533264 123.81353188 C234.95178538 122.41814127 234.57692823 121.02310056 234.20066833 119.62843895 C233.69115203 117.73929513 233.18661989 115.84880911 232.68237305 113.95825195 C232.39946411 112.90400528 232.11655518 111.84975861 231.82507324 110.76356506 C231.22729492 108.16113281 231.22729492 108.16113281 231.22729492 105.16113281 C230.56729492 105.16113281 229.90729492 105.16113281 229.22729492 105.16113281 C229.0391925 106.68025017 229.0391925 106.68025017 228.84729004 108.23005676 C228.25596124 111.97937416 227.39057843 115.42402164 226.30737305 119.05834961 C226.11278881 119.71618753 225.91820457 120.37402546 225.71772385 121.05179787 C225.06935061 123.23940542 224.41395044 125.42484154 223.75854492 127.61035156 C223.2895867 129.18746824 222.82107226 130.76471694 222.35296631 132.34208679 C221.08202943 136.62018362 219.80499278 140.89643733 218.52674866 145.17235565 C217.18504259 149.66389423 215.84849842 154.15696821 214.51147461 158.64990234 C212.83162156 164.29342783 211.15097711 169.93671468 209.4677124 175.57922363 C205.65844397 188.34855177 201.86405479 201.12221284 198.07974243 213.89895821 C196.37358238 219.65803189 194.66531456 225.41648066 192.95697021 231.17490673 C191.58518364 235.79917505 190.21433257 240.42371588 188.84570312 245.04891968 C187.55559201 249.40823726 186.26214166 253.76655095 184.96625519 258.12415504 C184.49278545 259.71829194 184.02046537 261.31277086 183.54943085 262.90762901 C181.51226149 269.80328486 179.45715495 276.69572166 177.16381836 283.51123047 C176.74444 284.76572495 176.74444 284.76572495 176.31658936 286.04556274 C174.91649233 288.76475718 173.96567963 289.75332326 171.22729492 291.16113281 C168.36726942 291.45678806 165.72575255 291.58145372 162.86621094 291.56518555 C161.60454102 291.57548042 161.60454102 291.57548042 160.31738281 291.58598328 C157.53848361 291.60427644 154.76014764 291.60041017 151.98120117 291.59472656 C150.04833289 291.59928724 148.11546623 291.60459247 146.18260193 291.61061096 C142.13159599 291.61954707 138.08078715 291.61711333 134.02978516 291.60717773 C128.83989262 291.59568892 123.65068055 291.61589569 118.46087742 291.64509487 C114.46912824 291.66344646 110.47754242 291.66316646 106.48576164 291.65745735 C104.57240787 291.657304 102.65904312 291.66335965 100.74572945 291.67574883 C98.06931073 291.69063696 95.39415286 291.67999808 92.71777344 291.6628418 C91.92851974 291.67250977 91.13926605 291.68217773 90.32609558 291.69213867 C86.68094956 291.64324263 84.44886911 291.29634676 81.3117981 289.38197327 C79.30774422 287.24684391 78.32640403 285.86001241 77.38476562 283.12597656 C77.10216385 282.33102783 76.81956207 281.5360791 76.52839661 280.71704102 C76.23954086 279.85296631 75.95068512 278.9888916 75.65307617 278.09863281 C75.33203415 277.18106201 75.01099213 276.26349121 74.68022156 275.31811523 C73.61820606 272.27082843 72.57915475 269.21621365 71.53979492 266.16113281 C70.79190676 264.00177215 70.04252975 261.84292663 69.29174805 259.68457031 C67.31533384 253.99104395 65.35769939 248.2912368 63.40411377 242.58984375 C61.51610199 237.08904246 59.61203404 231.59382266 57.70776367 226.09863281 C55.45658983 219.60054732 53.20624795 213.10219158 50.96313477 206.60131836 C45.59073382 191.03894511 40.1223545 175.51244935 34.60766602 160 C28.88406462 143.89559034 23.25482019 127.76025257 17.67156982 111.60668945 C12.64403168 97.06464234 7.54275524 82.5506825 2.38467407 68.05444336 C0.27586699 62.12060574 -1.82120007 56.18261439 -3.91630554 50.243927 C-5.44135476 45.92207119 -6.97061769 41.60192674 -8.5168457 37.28759766 C-9.79455747 33.72079122 -11.05273297 30.14778791 -12.29348755 26.56796265 C-12.93416894 24.73559686 -13.59604714 22.91068435 -14.25878906 21.08618164 C-16.47422445 14.61672376 -17.39077304 10.59345495 -14.77270508 4.16113281 C-10.49547768 -0.11609459 -5.726431 0.00857458 0 0 Z " fill="#FFFFFF" transform="translate(1578.772705078125,177.8388671875)"/>
<path d="M0 0 C7.93242581 7.45921157 14.08385882 15.32738538 19.3984375 24.80859375 C20.02234375 25.9171875 20.64625 27.02578125 21.2890625 28.16796875 C28.18299332 41.17651647 32.19220577 54.80595965 35.1484375 69.18359375 C35.34711426 70.13790283 35.54579102 71.09221191 35.75048828 72.07543945 C38.97325084 88.72637935 39.78202232 105.51287447 39.7109375 122.43359375 C39.70820328 123.79791031 39.70820328 123.79791031 39.70541382 125.18978882 C39.56433751 167.22271585 32.35469455 209.32211455 2.6484375 240.99609375 C-10.82242222 253.74386558 -27.30247637 261.95400114 -44.9765625 267.18359375 C-46.10396851 267.52342285 -46.10396851 267.52342285 -47.25415039 267.87011719 C-63.88851937 272.42653995 -81.07348751 273.36330693 -98.2265625 273.24609375 C-99.65524658 273.24153168 -99.65524658 273.24153168 -101.11279297 273.23687744 C-142.07805919 273.04437149 -179.95666724 264.40152492 -209.6796875 234.734375 C-239.09876975 203.40421064 -244.24767436 156.83941143 -243.6015625 115.80859375 C-242.19189452 75.31518989 -235.57119694 35.11846039 -206.6015625 4.80859375 C-206.00085937 4.133125 -205.40015625 3.45765625 -204.78125 2.76171875 C-159.00011705 -46.78496193 -47.9967793 -43.39206424 0 0 Z M-149.6015625 55.80859375 C-164.6603666 74.09211145 -168.0395164 97.51740812 -167.9140625 120.49609375 C-167.91223969 121.19314423 -167.91041687 121.8901947 -167.90853882 122.60836792 C-167.79935993 147.49439827 -163.84746656 171.75846963 -146.046875 190.5546875 C-132.84687542 202.72146027 -116.03882879 206.3452455 -98.53515625 206.05859375 C-82.59881904 205.04575802 -68.51274114 200.8467017 -56.6015625 189.80859375 C-55.97636719 189.23753906 -55.35117188 188.66648437 -54.70703125 188.078125 C-38.17135583 171.16918377 -35.21253688 144.73877317 -35.36938477 122.25366211 C-35.82831965 98.30833087 -40.22572153 72.95726587 -57.78515625 55.43359375 C-70.87261829 43.23557088 -86.75400246 38.38717708 -104.4140625 38.49609375 C-105.37747559 38.5017334 -106.34088867 38.50737305 -107.33349609 38.51318359 C-123.64480897 38.79011125 -138.29824166 43.5905533 -149.6015625 55.80859375 Z " fill="#FFFFFF" transform="translate(2741.6015625,196.19140625)"/>
<path d="M0 0 C15.345 1.8871875 15.345 1.8871875 31 3.8125 C34.17496094 4.20284424 37.34992187 4.59318848 40.62109375 4.99536133 C44.63676856 5.48908149 48.65236986 5.98337495 52.66772461 6.47969055 C54.08837774 6.65525236 55.50903203 6.8308048 56.9296875 7.00634766 C57.95362358 7.13290316 57.95362358 7.13290316 58.99824524 7.26201534 C63.47962003 7.81499213 67.96215586 8.35767675 72.4453125 8.89599609 C73.57138916 9.03269211 74.69746582 9.16938812 75.85766602 9.31022644 C77.94107337 9.56310364 80.02487942 9.81272481 82.10913086 10.05854797 C83.46470093 10.22425545 83.46470093 10.22425545 84.84765625 10.39331055 C85.63148682 10.48710495 86.41531738 10.58089935 87.22290039 10.67753601 C89 11 89 11 90 12 C90.09531163 13.3534059 90.1218872 14.71173984 90.12025452 16.0684967 C90.12231651 17.38316673 90.12231651 17.38316673 90.12442017 18.72439575 C90.12082489 19.69327728 90.11722961 20.66215881 90.11352539 21.66040039 C90.11367142 22.67491776 90.11381744 23.68943512 90.1139679 24.73469543 C90.11326829 28.10570373 90.10547368 31.47665754 90.09765625 34.84765625 C90.09579224 37.17793243 90.09436826 39.508209 90.09336853 41.83848572 C90.08954202 47.98537265 90.0797106 54.13223613 90.06866455 60.27911377 C90.05665939 67.64707199 90.05204883 75.01503804 90.04621124 82.38300323 C90.03649891 93.58868516 90.01734328 104.79431557 90 116 C109.14 116 128.28 116 148 116 C152.61952667 139.09763333 152.61952667 139.09763333 154.140625 147.47265625 C154.31253357 148.41386826 154.48444214 149.35508026 154.66156006 150.32481384 C155.01516126 152.2639899 155.36789467 154.20332441 155.71972656 156.14282227 C156.26042587 159.11990471 156.80590184 162.09608897 157.3515625 165.07226562 C157.698201 166.97651076 158.04456606 168.8808057 158.390625 170.78515625 C158.55306702 171.66937759 158.71550903 172.55359894 158.88287354 173.46461487 C159.10375641 174.68881386 159.10375641 174.68881386 159.32910156 175.93774414 C159.45915588 176.65241348 159.58921021 177.36708282 159.72320557 178.10340881 C160 180 160 180 160 183 C136.9 183 113.8 183 90 183 C90.09067139 206.19247309 90.09067139 206.19247309 90.20898438 229.38476562 C90.26339292 238.84771965 90.31480921 248.31062038 90.34643555 257.77368164 C90.36948684 264.66676415 90.40296375 271.55970583 90.44870156 278.45267648 C90.47253819 282.09884105 90.49132929 285.74486698 90.49761391 289.39110756 C90.50484427 293.47228292 90.5353615 297.55297888 90.56762695 301.6340332 C90.56619186 302.82878265 90.56475677 304.0235321 90.5632782 305.25448608 C90.67301345 315.10752188 91.82951324 326.52438615 99 334 C108.0488794 339.97792527 117.34188496 340.96698751 128 340 C134.0703015 338.66578768 140.40012023 336.75839197 145.55859375 333.26953125 C148.87121877 331.54696624 150.46087868 331.92400964 154 333 C155.77587891 335.37890625 155.77587891 335.37890625 157.2265625 338.5625 C157.77803955 339.74070312 158.3295166 340.91890625 158.89770508 342.1328125 C159.47391162 343.42167768 160.04966665 344.7107448 160.625 346 C161.22914512 347.31092066 161.83553395 348.62080948 162.4440918 349.9296875 C163.69178793 352.61815284 164.92853271 355.31128165 166.15869141 358.0078125 C167.89880681 361.80401012 169.70952842 365.5604385 171.54296875 369.3125 C172.09452637 370.44171875 172.64608398 371.5709375 173.21435547 372.734375 C174.25981222 374.87064592 175.30694555 377.00609737 176.35595703 379.140625 C176.82243652 380.10484375 177.28891602 381.0690625 177.76953125 382.0625 C178.17792236 382.89910156 178.58631348 383.73570312 179.00708008 384.59765625 C180.02517746 387.0609162 180.56814323 389.37552715 181 392 C158.78331406 406.81112396 129.94361155 413.96957479 103.390625 414.23828125 C102.58980499 414.24802979 101.78898499 414.25777832 100.96389771 414.26782227 C67.55309633 414.59137831 67.55309633 414.59137831 53 410 C51.79601563 409.62617188 50.59203125 409.25234375 49.3515625 408.8671875 C30.85845256 402.35795766 17.8687456 391.46735281 8.6875 374.125 C1.20182709 358.19980111 -0.31743983 341.38105087 -0.22705078 323.99853516 C-0.22648502 322.44969185 -0.22680643 320.90084801 -0.22793579 319.352005 C-0.22850388 315.19382738 -0.21683886 311.03576782 -0.20278788 306.87761736 C-0.19018869 302.51480253 -0.18910284 298.15198427 -0.18673706 293.78915405 C-0.18054906 285.54829892 -0.16417496 277.30749758 -0.14403808 269.06666601 C-0.1215951 259.67595928 -0.11066464 250.28524983 -0.10064721 240.89452291 C-0.07980601 221.59631824 -0.0446828 202.29816346 0 183 C-1.18553467 183.02094727 -2.37106934 183.04189453 -3.5925293 183.06347656 C-7.99995804 183.13599331 -12.40733426 183.18184215 -16.81518555 183.21972656 C-18.7212003 183.23981546 -20.62715362 183.26709194 -22.53295898 183.30175781 C-25.27603326 183.35039642 -28.01829125 183.37299579 -30.76171875 183.390625 C-31.61086349 183.41127014 -32.46000824 183.43191528 -33.33488464 183.45318604 C-37.42666113 183.45473044 -39.47207999 183.33259516 -43.01489258 181.10058594 C-46.01236049 177.92874805 -46.13014548 176.16024997 -46.16113281 171.89526367 C-46.17074036 170.83043259 -46.1803479 169.7656015 -46.19024658 168.66850281 C-46.19449646 167.51332657 -46.19874634 166.35815033 -46.203125 165.16796875 C-46.20882507 163.98407059 -46.21452515 162.80017242 -46.22039795 161.58039856 C-46.22985821 159.07110491 -46.23638599 156.56179877 -46.24023438 154.05249023 C-46.24993353 150.21380908 -46.2809455 146.37566462 -46.3125 142.53710938 C-46.31903049 140.10156569 -46.32428078 137.66601816 -46.328125 135.23046875 C-46.3404718 134.0813652 -46.3528186 132.93226166 -46.36553955 131.74833679 C-46.36253845 130.67404922 -46.35953735 129.59976166 -46.35644531 128.49291992 C-46.36009094 127.55075119 -46.36373657 126.60858246 -46.36749268 125.63786316 C-45.91832247 122.41371856 -44.96003257 120.58849004 -43 118 C-30.16601733 111.58300867 -14.34882883 116 0 116 C0 77.72 0 39.44 0 0 Z " fill="#FFFFFF" transform="translate(2276,55)"/>
<path d="M0 0 C2.07541327 0.15541639 4.15073597 0.31204258 6.22601986 0.46917725 C7.95957726 0.59981379 7.95957726 0.59981379 9.72815603 0.73308945 C13.60839649 1.04963178 17.43813443 1.50043367 21.29711914 2.015625 C22.02411011 2.11170044 22.75110107 2.20777588 23.50012207 2.3067627 C25.84561685 2.61766322 28.19038912 2.93366257 30.53515625 3.25 C32.18847894 3.47062671 33.84183553 3.69099958 35.495224 3.91113281 C38.93193776 4.36948255 42.36831254 4.83026963 45.80444336 5.29296875 C50.20531386 5.8854606 54.60687193 6.47265219 59.00867558 7.0581665 C62.41037017 7.51107606 65.81175393 7.96628441 69.21304131 8.42224121 C70.83685721 8.63972995 72.46075423 8.85661397 74.08473396 9.07287598 C76.34594482 9.37444116 78.60673421 9.67898782 80.86743164 9.984375 C82.15170547 10.15678711 83.43597931 10.32919922 84.75917053 10.50683594 C87.24680443 10.88538459 89.57396436 11.36674629 92 12 C92.0457485 64.14646336 92.08100449 116.2929247 92.10213066 168.43940417 C92.10463216 174.59168289 92.1072208 180.74396157 92.10986328 186.89624023 C92.1103879 188.12108074 92.11091252 189.34592124 92.11145304 190.60787813 C92.1201626 210.45674265 92.1359356 230.30559563 92.15430559 250.1544533 C92.17298933 270.51165012 92.18411349 290.86884087 92.18817699 311.22604591 C92.19092522 323.79389431 92.19961441 336.36171006 92.21583293 348.92954842 C92.22638098 357.5404051 92.22960558 366.15124484 92.22700275 374.76210751 C92.22571806 379.73477866 92.22772783 384.70739265 92.23841095 389.68005371 C92.24811336 394.22930214 92.24865455 398.77845475 92.24179779 403.32770751 C92.24094981 404.97650888 92.24351232 406.62531614 92.24976636 408.27410587 C92.25775684 410.51006842 92.25348803 412.74568204 92.24609566 414.98163891 C92.24723482 416.84701503 92.24723482 416.84701503 92.24839699 418.75007552 C91.90348783 423.26272569 90.95701293 425.98134263 87.85876465 429.27915955 C84.27767365 431.43480613 81.32000417 431.57061586 77.25976562 431.53344727 C76.49653488 431.54206284 75.73330414 431.55067841 74.94694519 431.55955505 C72.43303166 431.58219197 69.92023486 431.57548135 67.40625 431.56640625 C65.65417144 431.57164258 63.90209571 431.5779191 62.15002441 431.58518982 C58.48155432 431.59558956 54.81347223 431.59103838 51.14501953 431.57641602 C46.44707977 431.55922161 41.7503623 431.58273306 37.0525589 431.61790562 C33.43564776 431.6398791 29.81902918 431.63843844 26.20207214 431.6301403 C24.47013508 431.62932089 22.73817651 431.63618252 21.00630188 431.65091133 C18.58351753 431.668359 16.16293082 431.65381634 13.74023438 431.63110352 C13.02735764 431.64279572 12.3144809 431.65448792 11.58000183 431.66653442 C7.68856251 431.59241542 6.12042962 431.09953585 3.07873535 428.58555603 C-0.20047459 424.50683527 -0.12458658 422.34851961 -0.12304783 417.13213921 C-0.12420167 416.41396107 -0.12535552 415.69578294 -0.12654433 414.95584184 C-0.12921261 412.52480892 -0.12468709 410.0938409 -0.12025452 407.66281128 C-0.12069018 405.91216966 -0.12156498 404.16152809 -0.12284368 402.41088688 C-0.1250897 397.58113003 -0.1210659 392.75139516 -0.11606562 387.92164111 C-0.11176283 382.72053701 -0.11320742 377.51943424 -0.1139679 372.31832886 C-0.11449324 363.30070576 -0.11134535 354.28308988 -0.10573006 345.2654686 C-0.09761647 332.22736608 -0.09499998 319.18926705 -0.09374207 306.15116228 C-0.09155132 284.99969866 -0.08489064 263.84823888 -0.07543945 242.69677734 C-0.06626591 222.14534525 -0.05918479 201.5939142 -0.05493164 181.04248047 C-0.05466892 179.77651979 -0.05440619 178.51055911 -0.05413551 177.20623599 C-0.05283051 170.85553105 -0.05156679 164.50482611 -0.05032361 158.15412116 C-0.0399503 105.43607811 -0.02233138 52.71803924 0 0 Z " fill="#FFFFFF" transform="translate(2097,38)"/>
<path d="M0 0 C10.55280373 11.03247662 14.61758941 24.81388406 14.79980469 39.80615234 C14.45086383 54.95771195 8.82122837 67.66585266 -1.6796875 78.55859375 C-13.17150263 89.33435353 -26.52192709 92.41858628 -41.88671875 92.1796875 C-55.64277554 91.69722783 -67.06846447 85.82351463 -76.9609375 76.44921875 C-88.6682296 63.76298925 -92.01247799 48.78601599 -91.38623047 31.96679688 C-90.46411707 18.44246706 -84.05237404 7.05350475 -74.25 -2.03125 C-53.05087761 -18.88100837 -20.15938054 -18.19944077 0 0 Z " fill="#FFFFFF" transform="translate(325.25,217.03125)"/>
<path d="M0 0 C10.74535636 1.27268838 20.86356023 8.03958773 28 16 C38.91178975 30.44781705 41.00648987 44.38269946 40 62 C39.46591489 65.64807286 38.54741687 68.66393396 37 72 C36.60941406 72.88558594 36.21882812 73.77117187 35.81640625 74.68359375 C29.49256279 87.59999923 18.87186526 96.01446945 5.6875 101.25 C-8.65244893 106.07032039 -23.1452706 106.46120401 -37 100 C-39.82346203 98.51606405 -42.41870994 96.8712977 -45 95 C-45.59425781 94.58234375 -46.18851563 94.1646875 -46.80078125 93.734375 C-54.27804163 87.96478163 -60.42381569 78.09241521 -63 69 C-62.67 68.01 -62.34 67.02 -62 66 C-61.5153125 66.38671875 -61.030625 66.7734375 -60.53125 67.171875 C-51.24311167 74.38804401 -40.24147955 79.86370131 -28.1171875 79.28515625 C-15.39709572 77.57193356 -3.20099026 72.97457858 4.84375 62.62890625 C12.05262217 52.10578564 15.48159269 40.75391644 14 28 C12.13169955 18.50372731 8.33973563 10.13295771 1.28515625 3.3515625 C0 2 0 2 0 0 Z " fill="#FFFFFF" transform="translate(802,204)"/>
</svg>
