<svg width="32" height="32" viewBox="0 0 32 32" fill="none" xmlns="http://www.w3.org/2000/svg">
<path d="M15.8046 30.8046C24.0889 30.8046 30.8046 24.0889 30.8046 15.8046C30.8046 7.5204 24.0889 0.804688 15.8046 0.804688C7.5204 0.804688 0.804688 7.5204 0.804688 15.8046C0.804688 24.0889 7.5204 30.8046 15.8046 30.8046Z" fill="white"/>
<mask id="mask0_183_760" style="mask-type:luminance" maskUnits="userSpaceOnUse" x="0" y="0" width="31" height="31">
<path d="M15.8046 30.8041C24.0889 30.8041 30.8046 24.0884 30.8046 15.8042C30.8046 7.51991 24.0889 0.804199 15.8046 0.804199C7.5204 0.804199 0.804688 7.51991 0.804688 15.8042C0.804688 24.0884 7.5204 30.8041 15.8046 30.8041Z" fill="white"/>
</mask>
<g mask="url(#mask0_183_760)">
<path d="M11.8236 15.8875L8.58448 11.6381C8.58448 11.6381 8.70632 8.03469 13.9017 6.80826C19.0971 5.58183 24.7787 6.21975 24.5649 6.75768C24.3959 7.18527 24.2316 7.35539 24.0936 7.40366C26.3982 8.05308 29.5775 11.737 30.5488 14.2588C31.1396 15.7944 31.1764 22.4128 31.3063 23.9634C31.3798 24.8347 29.8338 27.6691 27.7476 30.6059C25.9936 31.2461 24.2074 31.7944 22.3902 32.2266C20.3235 32.7185 18.2201 33.0668 16.1051 33.2691C15.3603 32.7461 14.6339 32.1967 13.9327 31.6151C12.7431 30.6277 3.73047 27.576 3.73047 27.576C3.73047 27.576 6.05115 26.3438 7.30977 25.276C12.5465 20.8335 11.8258 15.8887 11.8258 15.8887H11.8236V15.8875Z" fill="#1A1C1B"/>
<path d="M28.8509 29.1924C27.4073 31.3924 25.1935 32.6935 22.8464 34.7521C21.4004 36.02 20.2245 37.0395 19.2762 37.8521C18.7625 38.2924 18.3176 38.6694 17.9337 38.9924C14.4878 36.0556 10.9659 33.2039 7.60156 30.1751C8.98202 28.2499 13.8418 20.9338 12.5579 15.0304C12.5452 14.974 11.5027 14.0844 11.4889 14.0281C11.0406 12.0396 9.60845 11.7177 9.60845 11.7177C9.60845 11.7177 9.50041 10.0269 11.4694 8.63843C14.0211 6.83843 20.4601 6.39016 22.8498 6.86717C22.8498 6.86717 22.4326 7.11314 22.0142 7.27291C21.4475 7.4913 21.2337 7.69705 21.2337 7.69705C21.2337 7.69705 22.9015 7.5005 24.6326 8.6005C26.3659 9.70279 27.6636 11.2786 28.2509 12.0695C28.4647 12.358 28.5854 12.543 28.5969 12.5626C28.5624 12.5223 28.0624 11.966 27.3866 11.5407C27.3808 11.5361 27.3728 11.5315 27.3647 11.5269C27.2716 11.4683 27.1751 11.4131 27.0762 11.3626C27.0142 11.3304 26.9498 11.2993 26.8866 11.2706C26.0222 10.8752 25.0716 10.7465 25.0716 10.7465C25.2383 10.8557 28.2923 13.9729 29.8118 17.1097C30.2843 18.0878 30.6095 18.9993 30.8325 19.8039C31.398 21.8453 31.559 24.4752 31.559 24.4752C31.559 24.4752 31.4613 24.6809 31.2739 25.0487C31.2118 25.1706 31.1406 25.3085 31.0578 25.4625C30.7843 25.9821 30.4004 26.6786 29.9187 27.4867C29.6038 28.0142 29.2475 28.5889 28.8521 29.1912H28.8509V29.1924Z" fill="url(#paint0_linear_183_760)"/>
<path d="M17.784 6.88055C16.9357 7.10009 16.1116 7.38285 15.2828 7.66675C14.5874 7.90468 13.8863 8.17135 13.2679 8.57825C12.6472 8.98629 12.1932 9.54951 11.807 10.1817C11.3805 10.8782 11.0357 11.6231 10.6357 12.3346C10.6334 12.3392 10.63 12.3438 10.6277 12.3484C10.1208 11.8334 9.61043 11.7185 9.61043 11.7185C9.61043 11.7185 9.50239 10.0277 11.4713 8.63917C12.915 7.62078 15.6035 7.03457 18.0989 6.80469C17.9943 6.82997 17.8886 6.85411 17.784 6.8817V6.88055Z" fill="white"/>
<path d="M24.9015 12.8633C24.9015 12.8633 24.0096 12.5013 23.2326 12.3967C23.2326 12.3967 26.6647 15.8829 28.0257 20.1909C28.6739 22.2426 29.2452 24.4564 29.6659 26.2104C30.1475 25.4024 30.5314 24.7058 30.805 24.1863C30.8716 22.7047 30.9004 21.138 30.8325 19.807C30.6096 19.0001 30.2843 18.0886 29.8119 17.1105C28.2923 13.9737 25.2395 10.8565 25.0716 10.7473C25.0716 10.7473 26.0222 10.876 26.8866 11.2714C25.8728 10.7484 24.6004 10.2496 23.1602 10.022C23.1602 10.022 24.2303 11.0484 24.9004 12.8633H24.9015Z" fill="url(#paint1_linear_183_760)"/>
<path d="M12.5605 15.0301L12.6203 12.8428H13.3858C13.3858 12.8428 14.5927 15.0704 17.7065 16.0922C20.0168 16.8497 21.7294 17.1347 23.5133 18.7887C23.4467 18.7738 22.503 18.6336 22.0018 18.6336C22.0018 18.6336 26.957 21.5611 28.3007 25.8991C29.3018 29.1312 29.0363 30.9324 28.8133 30.8209C27.3708 33.0197 25.1949 32.6944 22.849 34.7519C21.403 36.0197 20.226 37.0381 19.2789 37.8508L18.0674 39.1036C16.3547 37.6427 14.6237 36.2013 12.8996 34.7508L10.418 27.0289C10.418 27.0289 14.0513 21.8899 12.5605 15.0301Z" fill="url(#paint2_linear_183_760)"/>
<path d="M13.1984 30.3611C12.8835 31.0588 12.5272 31.7347 12.1421 32.3944L10.418 27.0289C10.418 27.0289 14.0513 21.8899 12.5605 15.0301L12.6203 12.8428H12.6559C13.7547 14.3267 14.4685 16.091 14.8685 17.8922C15.3065 19.8657 15.3375 21.8749 15.0513 23.8715C14.7306 26.106 14.126 28.3048 13.1996 30.3611H13.1984Z" fill="white"/>
<path d="M13.8961 17.1783L17.2053 16.4634C17.2053 16.4634 20.5007 17.9749 20.1754 21.5254C20.1754 21.5254 19.3421 20.207 18.5616 19.6956C18.5616 19.6956 20.1386 21.9657 19.949 26.568C19.7915 30.3806 18.9088 32.9829 18.9088 32.9829C18.9088 32.9829 19.2858 28.0679 18.0306 25.2771C18.0306 25.2771 17.7191 32.0748 14.5593 36.1461C13.526 35.2806 12.4927 34.4139 11.4662 33.5403L10.418 27.03C10.418 27.03 14.8582 23.5093 13.8961 17.1783Z" fill="#1A1C1B"/>
<path d="M8.24432 10.9506C9.1719 10.5483 11.2501 10.3437 12.2811 10.446C12.9523 10.5127 13.1776 10.5276 13.1776 10.5276C13.1776 10.5276 13.9121 10.9725 14.2845 11.8885C14.2845 11.8885 14.0018 11.8621 13.6236 11.9966C13.6236 11.9966 13.9018 13.6023 14.4075 14.5449C14.596 14.8966 15.642 15.5793 17.2087 16.4633C17.1443 16.7196 16.2156 17.0242 16.1661 17.2839C15.4512 17.2127 14.9811 17.138 14.9811 17.138C14.9811 17.138 15.1788 18.2529 14.8592 18.7908C14.8592 18.7908 13.711 16.9966 10.5926 16.4242C9.32822 16.192 8.58684 16.0943 8.2811 16.9862C8.10983 17.4862 8.03627 18.1609 8.03627 18.1609C8.03627 18.1609 5.9903 17.7138 5.60754 15.2541C5.26271 13.0437 6.80294 11.5759 8.24546 10.9506H8.24432Z" fill="#1A1C1B"/>
<path d="M8.82316 11.5809C9.65189 11.1613 10.8668 10.9901 11.6956 10.9912C12.0243 10.9912 12.4668 11.0521 12.6956 11.1498C12.0186 11.0682 11.2369 11.8039 11.2369 11.8039C11.8565 11.7602 12.5829 11.9039 12.7737 12.0648C12.9645 12.2257 13.4714 12.6636 14.4277 13.9855C15.3841 15.3073 17.2024 16.4636 17.2024 16.4636C17.2024 16.4636 15.63 15.7567 13.8565 14.9981C12.1979 14.2889 9.26799 13.9659 8.21741 14.482C7.16684 14.9981 7.23926 16.4636 7.23926 16.4636C7.23926 16.4636 6.59558 16.0751 6.49328 15.0464C6.28983 13.0131 7.99443 12.0004 8.82316 11.5809Z" fill="url(#paint3_linear_183_760)"/>
<path d="M8.82201 11.5809C9.65074 11.1613 10.8657 10.9901 11.6944 10.9912C12.0232 10.9912 12.4657 11.0521 12.6944 11.1498C11.7174 10.9717 10.168 11.2039 9.06684 11.836C8.06914 12.4085 7.37949 13.5406 7.40133 14.2866C7.40133 14.2866 7.52431 14.2487 8.21856 14.2314C8.46109 14.2257 9.17143 14.2567 9.17143 14.2567C8.78293 14.2935 8.45305 14.3671 8.21741 14.482C7.16684 14.9981 7.23926 16.4636 7.23926 16.4636C7.23926 16.4636 6.59558 16.0751 6.49328 15.0475C6.28983 13.0142 7.99443 12.0016 8.82316 11.582L8.82201 11.5809Z" fill="white"/>
<path d="M17.2087 16.4623C17.2087 16.4623 15.9834 15.4807 13.8627 14.9968C11.1616 14.3807 9.61328 15.3543 9.61328 15.3543C9.61328 15.3543 11.919 15.706 12.8753 16.1899C13.8317 16.6738 14.1179 16.9313 14.1179 16.9313C14.1179 16.9313 14.0225 16.3278 13.7995 16.0175C13.7995 16.0175 15.8707 16.0439 17.2087 16.4623Z" fill="url(#paint4_linear_183_760)"/>
<path d="M14.8477 14.4885C16.3764 15.531 19.8143 16.1816 20.6902 18.0057C20.6902 18.0057 19.781 17.5586 18.281 17.1861C16.781 16.8137 14.8477 14.4873 14.8477 14.4873V14.4885Z" fill="#1A1C1B"/>
<path d="M16.8405 11.052C17.66 10.8543 18.4887 10.5876 19.2163 10.1486C20.1106 10.0451 21.1497 10.4049 21.1497 10.4049C21.1497 10.4049 20.5221 10.3991 20.2864 10.6359C20.1749 10.7486 20.291 10.9566 20.2956 11.5589C20.3071 12.944 18.6393 13.0463 17.329 12.7635C16.1382 12.506 15.2336 12.0945 14.9727 11.3704C15.7887 11.229 16.0359 11.2463 16.8393 11.052H16.8405Z" fill="url(#paint5_linear_183_760)"/>
<path d="M15.0225 10.3302C15.0225 10.3302 15.2352 11.0429 15.6835 10.9693C16.3168 10.8647 18.1927 9.44977 19.5053 9.44288C20.1087 9.44058 20.6846 10.1049 21.1398 10.4038C21.1398 10.4038 20.1869 10.2049 19.4651 10.5233C19.4651 10.5233 19.5697 11.1797 18.7375 11.7647C17.9053 12.3498 16.411 11.798 16.411 11.798C16.411 11.798 16.395 12.2957 17.7168 12.5498C17.7168 12.5498 15.9754 12.7348 15.234 11.8578C14.672 11.1934 15.0214 10.3302 15.0214 10.3302H15.0225Z" fill="#1A1C1B"/>
<path d="M16.6523 11.1577C17.4707 11.1864 18.5351 10.6508 18.796 10.6358C18.8052 10.6266 18.7845 11.537 18.196 11.9324C17.2581 12.5611 16.6523 11.1577 16.6523 11.1577Z" fill="url(#paint6_linear_183_760)"/>
<path d="M18.4034 10.7471C18.4091 11.0563 18.2379 11.3172 17.9264 11.3643C17.6149 11.4114 17.1562 11.116 17.1562 11.116C17.1562 11.116 17.4149 10.9816 17.7482 10.931C18.1126 10.8758 18.408 10.7471 18.4034 10.7482V10.7471Z" fill="white"/>
<path d="M17.7499 10.9313C17.5534 10.9957 17.5097 11.0899 17.5936 11.2175C17.6775 11.3451 18.0373 11.3382 18.0373 11.3382C18.0373 11.3382 17.8718 11.4738 17.5534 11.4543C16.9718 11.4187 16.9062 11.1497 16.9062 11.1497C16.9062 11.1497 17.0545 10.9325 17.3361 10.8934C17.6177 10.8543 17.7511 10.9313 17.7511 10.9313H17.7499Z" fill="#092439"/>
<path d="M11.3313 33.4254C9.85197 32.1668 8.3876 30.8909 6.95312 29.5817C8.34048 26.9312 12.3014 19.2105 12.7658 16.5933C12.7658 16.5933 14.3715 19.653 12.7359 26.1553C12.0451 28.9036 11.5106 32.2518 11.3324 33.4243H11.3313V33.4254Z" fill="#1A1C1B"/>
<path d="M19.3991 10.9692C19.3991 10.9692 19.3991 11.6773 18.4784 12.0945C17.7508 12.4244 16.4141 11.7991 16.4141 11.7991C16.4141 11.7991 17.7198 12.1761 18.6014 11.6911C19.4072 11.2474 19.4003 10.9704 19.4003 10.9704L19.3991 10.9692Z" fill="white"/>
<path d="M28.1902 32.0887L29.2684 29.9059C29.2684 29.9059 29.4454 24.4622 26.3695 19.3462C26.3695 19.3462 28.9879 21.5381 30.1454 25.0312C29.627 22.1324 28.5408 18.0174 26.2695 13.3301C26.2695 13.3301 28.9523 14.814 31.1546 18.7898C32.8845 21.914 32.2833 27.5369 31.9454 29.8047C30.6695 30.53 29.4201 31.2944 28.1902 32.0875V32.0887Z" fill="#1A1C1B"/>
<path d="M23.0977 28.6207C23.6069 24.1529 23.2138 20.9575 23.2138 20.9575C23.2138 20.9575 24.8828 22.8886 26.1069 27.1138C26.8242 29.5908 27.077 31.5552 27.1633 32.7575C25.0276 34.1713 22.9449 35.6632 20.8828 37.1851C21.7058 35.215 22.6828 32.2575 23.0977 28.6196V28.6207Z" fill="#1A1C1B"/>
<path d="M11.6199 12.6451C11.6843 12.6255 11.7394 12.6083 11.7889 12.5945C11.5785 12.4657 11.2383 12.3818 11.2383 12.3818C11.2383 12.3818 12.0498 12.2324 12.3049 12.5497C12.5601 12.8669 12.5659 13.3715 12.0797 13.1129C12.0003 13.0887 11.9072 13.052 11.8107 13.0163C11.4877 12.8979 11.3613 12.7244 11.6199 12.6451Z" fill="#092439"/>
<path d="M9.85244 10.6442C9.60876 10.4109 11.2386 10.4109 12.872 9.64999C14.6225 8.8339 15.5363 9.37643 15.5363 9.37643C15.5363 9.37643 14.9812 9.38103 14.2823 9.79482C13.2547 10.4029 13.8605 11.1695 11.657 10.8822C10.1812 10.6902 9.85359 10.6442 9.85359 10.6442H9.85244Z" fill="#1A1C1B"/>
<path d="M14.0632 27.952C15.5126 24.4428 15.308 21.1934 15.308 21.1934C16.2758 26.7864 13.8965 32.7956 12.985 34.8244C12.3482 34.2887 11.7115 33.7508 11.0781 33.2106C11.5448 32.6209 12.8885 30.7956 14.0632 27.952Z" fill="url(#paint7_linear_183_760)"/>
<path d="M12.2793 20.4678C12.1253 22.1793 11.8173 24.577 11.2219 26.439C11.2219 26.439 13.1448 25.2873 14.0345 23.5149C14.0345 23.5149 14.1414 27.1482 13.2276 30.7137C12.9035 31.9792 11.7954 33.816 11.7954 33.816C11.7954 33.816 9.21267 31.9229 8.40807 31.4448C6.59314 30.3631 5.42188 28.631 5.42188 28.631C5.42188 28.631 11.0828 25.0103 12.2793 20.4701V20.4678Z" fill="url(#paint8_linear_183_760)"/>
<path d="M9.00223 28.6287C7.72408 27.7137 7.63672 26.9942 7.63672 26.9942C7.63672 26.9942 11.3758 23.9965 12.2758 20.4678C12.1068 23.3137 9.51717 27.8758 9.00223 28.6298V28.6287Z" fill="white"/>
<path d="M7.98624 31.1666C6.31038 29.9666 5.42188 28.6298 5.42188 28.6298C5.42188 28.6298 11.0977 25.0942 12.2782 20.4678C12.0563 24.1988 8.6621 30.1792 7.98624 31.1677V31.1666Z" fill="white"/>
</g>
<path fill-rule="evenodd" clip-rule="evenodd" d="M15.8046 1.60919C7.96467 1.60919 1.60919 7.96467 1.60919 15.8046C1.60919 23.6444 7.96467 29.9999 15.8046 29.9999C23.6444 29.9999 29.9999 23.6444 29.9999 15.8046C29.9999 7.96467 23.6444 1.60919 15.8046 1.60919ZM0 15.8046C0 7.07594 7.07594 0 15.8046 0C24.5332 0 31.6091 7.07594 31.6091 15.8046C31.6091 24.5332 24.5332 31.6091 15.8046 31.6091C7.07594 31.6091 0 24.5332 0 15.8046Z" fill="#1A1C1B"/>
<defs>
<linearGradient id="paint0_linear_183_760" x1="7.60156" y1="6.68945" x2="38.2095" y2="15.2705" gradientUnits="userSpaceOnUse">
<stop stop-color="#FF2020"/>
<stop offset="0.491467" stop-color="#EF325F"/>
<stop offset="1" stop-color="#59248A"/>
</linearGradient>
<linearGradient id="paint1_linear_183_760" x1="4.07166" y1="-21.1492" x2="35.6415" y2="-17.7213" gradientUnits="userSpaceOnUse">
<stop stop-color="#FF2020"/>
<stop offset="0.491467" stop-color="#EF325F"/>
<stop offset="1" stop-color="#59248A"/>
</linearGradient>
<linearGradient id="paint2_linear_183_760" x1="-35.6323" y1="-37.723" x2="39.4684" y2="-25.596" gradientUnits="userSpaceOnUse">
<stop stop-color="#FF2020"/>
<stop offset="0.491467" stop-color="#EF325F"/>
<stop offset="1" stop-color="#59248A"/>
</linearGradient>
<linearGradient id="paint3_linear_183_760" x1="6.47656" y1="10.9912" x2="13.4296" y2="19.5343" gradientUnits="userSpaceOnUse">
<stop stop-color="#F68B2E"/>
<stop offset="1" stop-color="#F6BB5C"/>
</linearGradient>
<linearGradient id="paint4_linear_183_760" x1="17.2087" y1="16.7763" x2="12.3155" y2="4.20893" gradientUnits="userSpaceOnUse">
<stop stop-color="#F68B2E"/>
<stop offset="1" stop-color="#F6BB5C"/>
</linearGradient>
<linearGradient id="paint5_linear_183_760" x1="6.71298" y1="-0.516921" x2="17.5664" y2="23.095" gradientUnits="userSpaceOnUse">
<stop stop-color="#FF2020"/>
<stop offset="0.491467" stop-color="#EF325F"/>
<stop offset="1" stop-color="#59248A"/>
</linearGradient>
<linearGradient id="paint6_linear_183_760" x1="16.6523" y1="10.6357" x2="18.5389" y2="12.3748" gradientUnits="userSpaceOnUse">
<stop stop-color="#F68B2E"/>
<stop offset="1" stop-color="#F6BB5C"/>
</linearGradient>
<linearGradient id="paint7_linear_183_760" x1="5.26839" y1="-41.0247" x2="36.1736" y2="-31.3923" gradientUnits="userSpaceOnUse">
<stop stop-color="#FF2020"/>
<stop offset="0.491467" stop-color="#EF325F"/>
<stop offset="0.762175" stop-color="#59248A"/>
<stop offset="1" stop-color="#3B0F63"/>
</linearGradient>
<linearGradient id="paint8_linear_183_760" x1="-5.80924" y1="-40.4597" x2="41.7386" y2="-11.2042" gradientUnits="userSpaceOnUse">
<stop stop-color="#FF2020"/>
<stop offset="0.491467" stop-color="#EF325F"/>
<stop offset="0.762175" stop-color="#59248A"/>
<stop offset="1" stop-color="#3B0F63"/>
</linearGradient>
</defs>
</svg>
