<svg width="128" height="33" viewBox="0 0 128 33" fill="none" xmlns="http://www.w3.org/2000/svg">
<path d="M16 31.3105C24.2842 31.3105 30.9999 24.5948 30.9999 16.3105C30.9999 8.02626 24.2842 1.31055 16 1.31055C7.71571 1.31055 1 8.02626 1 16.3105C1 24.5948 7.71571 31.3105 16 31.3105Z" fill="white"/>
<mask id="mask0_924_5139" style="mask-type:luminance" maskUnits="userSpaceOnUse" x="1" y="1" width="30" height="31">
<path d="M16 31.3105C24.2842 31.3105 30.9999 24.5948 30.9999 16.3105C30.9999 8.02626 24.2842 1.31055 16 1.31055C7.71571 1.31055 1 8.02626 1 16.3105C1 24.5948 7.71571 31.3105 16 31.3105Z" fill="white"/>
</mask>
<g mask="url(#mask0_924_5139)">
<path d="M12.0189 16.3939L8.77979 12.1445C8.77979 12.1445 8.90163 8.54104 14.097 7.31461C19.2924 6.08817 24.974 6.7261 24.7602 7.26403C24.5912 7.69162 24.4269 7.86173 24.2889 7.91001C26.5935 8.55943 29.7728 12.2433 30.7441 14.7652C31.3349 16.3008 31.3717 22.9192 31.5016 24.4697C31.5751 25.341 30.0292 28.1755 27.943 31.1122C26.1889 31.7525 24.4027 32.3007 22.5855 32.7329C20.5188 33.2249 18.4154 33.5732 16.3005 33.7755C15.5556 33.2525 14.8292 32.703 14.1281 32.1214C12.9384 31.1341 3.92578 28.0824 3.92578 28.0824C3.92578 28.0824 6.24646 26.8502 7.50508 25.7824C12.7418 21.3399 12.0212 16.395 12.0212 16.395H12.0189V16.3939Z" fill="#1A1C1B"/>
<path d="M29.0462 29.6983C27.6026 31.8982 25.3888 33.1994 23.0417 35.258C21.5957 36.5258 20.4198 37.5454 19.4716 38.358C18.9578 38.7982 18.5129 39.1752 18.129 39.4982C14.6831 36.5615 11.1612 33.7097 7.79688 30.681C9.17733 28.7557 14.0371 21.4397 12.7532 15.5362C12.7405 15.4799 11.698 14.5902 11.6842 14.5339C11.2359 12.5454 9.80377 12.2236 9.80377 12.2236C9.80377 12.2236 9.69572 10.5328 11.6647 9.14428C14.2164 7.34429 20.6555 6.89602 23.0451 7.37303C23.0451 7.37303 22.6279 7.619 22.2095 7.77877C21.6428 7.99716 21.429 8.20291 21.429 8.20291C21.429 8.20291 23.0968 8.00636 24.8279 9.10636C26.5612 10.2087 27.8589 11.7845 28.4462 12.5753C28.66 12.8638 28.7807 13.0489 28.7922 13.0684C28.7577 13.0282 28.2577 12.4719 27.5819 12.0466C27.5761 12.042 27.5681 12.0374 27.56 12.0328C27.4669 11.9742 27.3704 11.919 27.2715 11.8684C27.2095 11.8362 27.1451 11.8052 27.0819 11.7765C26.2175 11.3811 25.2669 11.2523 25.2669 11.2523C25.4336 11.3615 28.4876 14.4788 30.0072 17.6155C30.4796 18.5937 30.8049 19.5052 31.0278 20.3098C31.5934 22.3511 31.7543 24.981 31.7543 24.981C31.7543 24.981 31.6566 25.1868 31.4692 25.5546C31.4072 25.6764 31.3359 25.8144 31.2531 25.9684C30.9796 26.4879 30.5957 27.1845 30.1141 27.9925C29.7991 28.5201 29.4428 29.0948 29.0474 29.6971H29.0462V29.6983Z" fill="url(#paint0_linear_924_5139)"/>
<path d="M17.9793 7.38739C17.131 7.60693 16.3069 7.88968 15.4781 8.17359C14.7827 8.41152 14.0816 8.67819 13.4632 9.08508C12.8425 9.49313 12.3885 10.0563 12.0023 10.6885C11.5759 11.3851 11.231 12.1299 10.831 12.8414C10.8287 12.846 10.8253 12.8506 10.823 12.8552C10.3161 12.3402 9.80574 12.2253 9.80574 12.2253C9.80574 12.2253 9.6977 10.5345 11.6667 9.146C13.1103 8.12761 15.7988 7.54141 18.2942 7.31152C18.1896 7.33681 18.0839 7.36095 17.9793 7.38853V7.38739Z" fill="white"/>
<path d="M25.0968 13.3697C25.0968 13.3697 24.2049 13.0076 23.4279 12.903C23.4279 12.903 26.8601 16.3892 28.221 20.6973C28.8692 22.749 29.4405 24.9628 29.8612 26.7168C30.3428 25.9087 30.7267 25.2122 31.0003 24.6927C31.0669 23.211 31.0957 21.6444 31.0279 20.3134C30.8049 19.5065 30.4796 18.595 30.0072 17.6168C28.4876 14.48 25.4348 11.3628 25.267 11.2536C25.267 11.2536 26.2175 11.3823 27.0819 11.7777C26.0681 11.2548 24.7957 10.7559 23.3555 10.5283C23.3555 10.5283 24.4256 11.5548 25.0957 13.3697H25.0968Z" fill="url(#paint1_linear_924_5139)"/>
<path d="M12.7558 15.536L12.8156 13.3486H13.5811C13.5811 13.3486 14.788 15.5762 17.9018 16.598C20.2121 17.3555 21.9247 17.6406 23.7086 19.2946C23.642 19.2797 22.6983 19.1394 22.1972 19.1394C22.1972 19.1394 27.1523 22.067 28.496 26.4049C29.4971 29.6371 29.2316 31.4382 29.0086 31.3267C27.5661 33.5256 25.3903 33.2003 23.0443 35.2578C21.5983 36.5256 20.4213 37.544 19.4742 38.3566L18.2627 39.6095C16.55 38.1486 14.819 36.7072 13.0949 35.2566L10.6133 27.5348C10.6133 27.5348 14.2466 22.3957 12.7558 15.536Z" fill="url(#paint2_linear_924_5139)"/>
<path d="M13.3937 30.867C13.0788 31.5647 12.7225 32.2405 12.3374 32.9003L10.6133 27.5348C10.6133 27.5348 14.2466 22.3957 12.7558 15.536L12.8156 13.3486H12.8512C13.9501 14.8325 14.6638 16.5969 15.0638 18.398C15.5018 20.3716 15.5328 22.3808 15.2466 24.3773C14.9259 26.6118 14.3213 28.8107 13.3949 30.867H13.3937Z" fill="white"/>
<path d="M14.0914 17.6847L17.4006 16.9697C17.4006 16.9697 20.696 18.4812 20.3707 22.0318C20.3707 22.0318 19.5374 20.7134 18.7569 20.2019C18.7569 20.2019 20.3339 22.472 20.1443 27.0743C19.9868 30.8869 19.1041 33.4892 19.1041 33.4892C19.1041 33.4892 19.4811 28.5743 18.2259 25.7835C18.2259 25.7835 17.9144 32.5812 14.7546 36.6524C13.7213 35.7869 12.688 34.9203 11.6616 34.0467L10.6133 27.5364C10.6133 27.5364 15.0535 24.0157 14.0914 17.6847Z" fill="#1A1C1B"/>
<path d="M8.43963 11.4575C9.36721 11.0552 11.4454 10.8506 12.4764 10.9529C13.1477 11.0195 13.3729 11.0345 13.3729 11.0345C13.3729 11.0345 14.1074 11.4793 14.4798 12.3954C14.4798 12.3954 14.1971 12.3689 13.8189 12.5034C13.8189 12.5034 14.0971 14.1092 14.6028 15.0517C14.7913 15.4034 15.8373 16.0862 17.404 16.9701C17.3396 17.2264 16.4109 17.531 16.3614 17.7908C15.6465 17.7195 15.1764 17.6448 15.1764 17.6448C15.1764 17.6448 15.3741 18.7597 15.0546 19.2977C15.0546 19.2977 13.9063 17.5034 10.7879 16.931C9.52353 16.6988 8.78216 16.6011 8.47641 17.4931C8.30515 17.9931 8.23158 18.6678 8.23158 18.6678C8.23158 18.6678 6.18561 18.2207 5.80285 15.7609C5.45803 13.5506 6.99825 12.0827 8.44078 11.4575H8.43963Z" fill="#1A1C1B"/>
<path d="M9.01847 12.0877C9.84721 11.6682 11.0621 11.4969 11.8909 11.4981C12.2196 11.4981 12.6621 11.559 12.8909 11.6567C12.2139 11.5751 11.4323 12.3107 11.4323 12.3107C12.0518 12.267 12.7782 12.4107 12.969 12.5716C13.1598 12.7325 13.6667 13.1705 14.6231 14.4923C15.5794 15.8141 17.3978 16.9705 17.3978 16.9705C17.3978 16.9705 15.8254 16.2636 14.0518 15.5049C12.3932 14.7957 9.4633 14.4728 8.41273 14.9888C7.36215 15.5049 7.43457 16.9705 7.43457 16.9705C7.43457 16.9705 6.79089 16.5819 6.68859 15.5532C6.48515 13.5199 8.18974 12.5072 9.01847 12.0877Z" fill="url(#paint3_linear_924_5139)"/>
<path d="M9.01732 12.0877C9.84606 11.6682 11.061 11.4969 11.8897 11.4981C12.2185 11.4981 12.661 11.559 12.8897 11.6567C11.9127 11.4785 10.3633 11.7107 9.26215 12.3429C8.26445 12.9153 7.5748 14.0475 7.59664 14.7934C7.59664 14.7934 7.71963 14.7555 8.41388 14.7383C8.65641 14.7325 9.36675 14.7636 9.36675 14.7636C8.97824 14.8003 8.64836 14.8739 8.41273 14.9888C7.36215 15.5049 7.43457 16.9705 7.43457 16.9705C7.43457 16.9705 6.79089 16.5819 6.68859 15.5544C6.48515 13.521 8.18974 12.5084 9.01847 12.0889L9.01732 12.0877Z" fill="white"/>
<path d="M17.404 16.9687C17.404 16.9687 16.1787 15.9871 14.058 15.5032C11.3569 14.8871 9.80859 15.8606 9.80859 15.8606C9.80859 15.8606 12.1143 16.2123 13.0707 16.6963C14.027 17.1802 14.3132 17.4376 14.3132 17.4376C14.3132 17.4376 14.2178 16.8342 13.9948 16.5238C13.9948 16.5238 16.066 16.5503 17.404 16.9687Z" fill="url(#paint4_linear_924_5139)"/>
<path d="M15.043 14.9943C16.5717 16.0368 20.0096 16.6874 20.8855 18.5115C20.8855 18.5115 19.9763 18.0644 18.4763 17.692C16.9763 17.3196 15.043 14.9932 15.043 14.9932V14.9943Z" fill="#1A1C1B"/>
<path d="M17.0358 11.5579C17.8553 11.3602 18.6841 11.0935 19.4116 10.6544C20.3059 10.551 21.345 10.9108 21.345 10.9108C21.345 10.9108 20.7174 10.905 20.4817 11.1418C20.3703 11.2544 20.4863 11.4625 20.4909 12.0648C20.5024 13.4498 18.8346 13.5521 17.5243 13.2694C16.3335 13.0119 15.4289 12.6004 15.168 11.8763C15.9841 11.7349 16.2312 11.7521 17.0346 11.5579H17.0358Z" fill="url(#paint5_linear_924_5139)"/>
<path d="M15.2179 10.8366C15.2179 10.8366 15.4305 11.5492 15.8788 11.4757C16.5121 11.3711 18.388 9.95612 19.7006 9.94922C20.3041 9.94693 20.8799 10.6113 21.3351 10.9101C21.3351 10.9101 20.3822 10.7113 19.6604 11.0297C19.6604 11.0297 19.765 11.686 18.9328 12.2711C18.1006 12.8561 16.6064 12.3044 16.6064 12.3044C16.6064 12.3044 16.5903 12.8021 17.9121 13.0561C17.9121 13.0561 16.1707 13.2412 15.4294 12.3642C14.8673 11.6998 15.2167 10.8366 15.2167 10.8366H15.2179Z" fill="#1A1C1B"/>
<path d="M16.8477 11.6645C17.666 11.6932 18.7304 11.1576 18.9913 11.1426C19.0005 11.1335 18.9798 12.0438 18.3913 12.4392C17.4534 13.0679 16.8477 11.6645 16.8477 11.6645Z" fill="url(#paint6_linear_924_5139)"/>
<path d="M18.5987 11.2539C18.6044 11.5631 18.4332 11.824 18.1217 11.8711C17.8102 11.9183 17.3516 11.6229 17.3516 11.6229C17.3516 11.6229 17.6102 11.4884 17.9435 11.4378C18.3079 11.3826 18.6033 11.2539 18.5987 11.2551V11.2539Z" fill="white"/>
<path d="M17.945 11.4377C17.7484 11.502 17.7048 11.5963 17.7887 11.7239C17.8726 11.8515 18.2324 11.8446 18.2324 11.8446C18.2324 11.8446 18.0668 11.9802 17.7484 11.9607C17.1668 11.925 17.1013 11.6561 17.1013 11.6561C17.1013 11.6561 17.2496 11.4388 17.5312 11.3997C17.8128 11.3607 17.9461 11.4377 17.9461 11.4377H17.945Z" fill="#092439"/>
<path d="M11.5266 33.9317C10.0473 32.6731 8.58292 31.3973 7.14844 30.0881C8.53579 27.4375 12.4967 19.7168 12.9611 17.0996C12.9611 17.0996 14.5668 20.1594 12.9312 26.6617C12.2404 29.4099 11.7059 32.7582 11.5277 33.9306H11.5266V33.9317Z" fill="#1A1C1B"/>
<path d="M19.5944 11.4756C19.5944 11.4756 19.5944 12.1836 18.6737 12.6009C17.9461 12.9308 16.6093 12.3055 16.6093 12.3055C16.6093 12.3055 17.9151 12.6825 18.7967 12.1974C19.6024 11.7537 19.5955 11.4767 19.5955 11.4767L19.5944 11.4756Z" fill="white"/>
<path d="M28.3855 32.5945L29.4637 30.4118C29.4637 30.4118 29.6407 24.9681 26.5648 19.852C26.5648 19.852 29.1832 22.044 30.3407 25.5371C29.8223 22.6382 28.7361 18.5233 26.4648 13.8359C26.4648 13.8359 29.1476 15.3198 31.3499 19.2957C33.0798 22.4198 32.4786 28.0428 32.1407 30.3106C30.8648 31.0359 29.6154 31.8003 28.3855 32.5934V32.5945Z" fill="#1A1C1B"/>
<path d="M23.2931 29.1271C23.8023 24.6593 23.4092 21.4639 23.4092 21.4639C23.4092 21.4639 25.0781 23.3949 26.3022 27.6202C27.0195 30.0972 27.2724 32.0615 27.3586 33.2638C25.2229 34.6776 23.1402 36.1696 21.0781 37.6914C21.9011 35.7213 22.8781 32.7638 23.2931 29.1259V29.1271Z" fill="#1A1C1B"/>
<path d="M11.8152 13.1519C11.8796 13.1324 11.9347 13.1151 11.9842 13.1013C11.7738 12.9726 11.4336 12.8887 11.4336 12.8887C11.4336 12.8887 12.2451 12.7392 12.5003 13.0565C12.7554 13.3737 12.7612 13.8783 12.275 13.6197C12.1957 13.5956 12.1026 13.5588 12.006 13.5232C11.683 13.4048 11.5566 13.2312 11.8152 13.1519Z" fill="#092439"/>
<path d="M10.0477 11.1506C9.80407 10.9173 11.434 10.9173 13.0673 10.1563C14.8179 9.34025 15.7316 9.88278 15.7316 9.88278C15.7316 9.88278 15.1765 9.88738 14.4776 10.3012C13.45 10.9092 14.0558 11.6759 11.8523 11.3885C10.3765 11.1966 10.0489 11.1506 10.0489 11.1506H10.0477Z" fill="#1A1C1B"/>
<path d="M14.2585 28.4578C15.7079 24.9486 15.5033 21.6992 15.5033 21.6992C16.4711 27.2923 14.0918 33.3015 13.1803 35.3302C12.5435 34.7946 11.9068 34.2567 11.2734 33.7164C11.7401 33.1268 13.0838 31.3015 14.2585 28.4578Z" fill="url(#paint7_linear_924_5139)"/>
<path d="M12.4746 20.9746C12.3206 22.6861 12.0126 25.0838 11.4172 26.9459C11.4172 26.9459 13.3402 25.7941 14.2298 24.0217C14.2298 24.0217 14.3367 27.655 13.4229 31.2206C13.0988 32.4861 11.9907 34.3229 11.9907 34.3229C11.9907 34.3229 9.40798 32.4298 8.60339 31.9516C6.78845 30.87 5.61719 29.1378 5.61719 29.1378C5.61719 29.1378 11.2781 25.5171 12.4746 20.9769V20.9746Z" fill="url(#paint8_linear_924_5139)"/>
<path d="M9.19755 29.1355C7.91939 28.2206 7.83203 27.501 7.83203 27.501C7.83203 27.501 11.5711 24.5033 12.4711 20.9746C12.3021 23.8206 9.71249 28.3826 9.19755 29.1367V29.1355Z" fill="white"/>
<path d="M8.18155 31.6734C6.50569 30.4734 5.61719 29.1367 5.61719 29.1367C5.61719 29.1367 11.293 25.601 12.4735 20.9746C12.2517 24.7056 8.85741 30.6861 8.18155 31.6746V31.6734Z" fill="white"/>
</g>
<path d="M16 31.3105C24.2842 31.3105 30.9999 24.5948 30.9999 16.3105C30.9999 8.02626 24.2842 1.31055 16 1.31055C7.71571 1.31055 1 8.02626 1 16.3105C1 24.5948 7.71571 31.3105 16 31.3105Z" stroke="white" stroke-width="1.60919"/>
<path d="M41.2707 25V6.45629H44.8533V25H41.2707ZM52.523 25L46.8716 16.977H50.8831L56.7111 25H52.523ZM43.7936 18.844V15.9426H48.4863C49.1423 15.9426 49.7057 15.808 50.1767 15.5389C50.6645 15.2698 51.0429 14.8914 51.312 14.4036C51.5811 13.9158 51.7157 13.3608 51.7157 12.7384C51.7157 12.0993 51.5811 11.5358 51.312 11.0481C51.0429 10.5603 50.6645 10.1819 50.1767 9.91274C49.7057 9.64362 49.1423 9.50906 48.4863 9.50906H43.7936V6.45629H48.1079C49.588 6.45629 50.8663 6.67495 51.9428 7.11226C53.036 7.54957 53.877 8.21395 54.4657 9.10539C55.0544 9.99684 55.3487 11.1153 55.3487 12.4609V12.8646C55.3487 14.227 55.046 15.3455 54.4405 16.2201C53.8518 17.0947 53.0192 17.7507 51.9428 18.188C50.8663 18.6253 49.588 18.844 48.1079 18.844H43.7936ZM66.1905 25V20.938H65.6103V16.422C65.6103 15.6314 65.4168 15.0427 65.03 14.6559C64.6431 14.269 64.046 14.0756 63.2387 14.0756C62.8182 14.0756 62.3136 14.084 61.7249 14.1008C61.1362 14.1177 60.5391 14.1429 59.9336 14.1765C59.3449 14.1933 58.8151 14.2186 58.3442 14.2522V11.2751C58.731 11.2415 59.1683 11.2079 59.6561 11.1742C60.1439 11.1406 60.64 11.1238 61.1446 11.1238C61.666 11.1069 62.1538 11.0985 62.6079 11.0985C64.0208 11.0985 65.1898 11.2835 66.1149 11.6536C67.0568 12.0236 67.7632 12.6039 68.2341 13.3944C68.7219 14.1849 68.9658 15.2193 68.9658 16.4976V25H66.1905ZM61.7754 25.3532C60.783 25.3532 59.9084 25.1766 59.1515 24.8234C58.4114 24.4702 57.8312 23.9656 57.4107 23.3096C57.007 22.6537 56.8052 21.8631 56.8052 20.938C56.8052 19.9289 57.049 19.1047 57.5368 18.4656C58.0414 17.8264 58.7394 17.347 59.6309 17.0275C60.5391 16.7079 61.5988 16.5481 62.8098 16.5481H65.9887V18.6422H62.7593C61.952 18.6422 61.3297 18.844 60.8923 19.2477C60.4718 19.6345 60.2616 20.1391 60.2616 20.7614C60.2616 21.3838 60.4718 21.8884 60.8923 22.2752C61.3297 22.6621 61.952 22.8555 62.7593 22.8555C63.2471 22.8555 63.6928 22.7714 64.0965 22.6032C64.517 22.4182 64.8618 22.1154 65.1309 21.6949C65.4168 21.2576 65.5766 20.6689 65.6103 19.9289L66.4681 20.9128C66.384 21.8715 66.1485 22.6789 65.7616 23.3349C65.3916 23.9908 64.8702 24.4954 64.1974 24.8486C63.5414 25.185 62.7341 25.3532 61.7754 25.3532ZM71.4608 30.0459V11.3004H74.236V17.2041L73.8071 17.1788C73.8744 15.7828 74.1603 14.6138 74.6649 13.6719C75.1863 12.73 75.8759 12.032 76.7337 11.5779C77.5915 11.1069 78.5503 10.8715 79.6099 10.8715C80.5854 10.8715 81.4601 11.0481 82.2338 11.4013C83.0243 11.7545 83.6971 12.2507 84.2521 12.8898C84.824 13.529 85.2613 14.2774 85.5641 15.1353C85.8668 15.9762 86.0182 16.8845 86.0182 17.86V18.3899C86.0182 19.3822 85.8668 20.3073 85.5641 21.1651C85.2781 22.0061 84.8492 22.7546 84.2774 23.4105C83.7223 24.0497 83.0495 24.5543 82.259 24.9243C81.4685 25.2775 80.5854 25.4541 79.6099 25.4541C78.5839 25.4541 77.642 25.2439 76.7842 24.8234C75.9432 24.3861 75.262 23.7217 74.7406 22.8303C74.2192 21.922 73.9248 20.753 73.8576 19.3234L74.9677 21.0137V30.0459H71.4608ZM78.7269 22.5023C79.4837 22.5023 80.1397 22.3173 80.6948 21.9472C81.2666 21.5772 81.7124 21.0642 82.0319 20.4082C82.3515 19.7354 82.5113 18.9786 82.5113 18.1376C82.5113 17.2629 82.3515 16.5061 82.0319 15.8669C81.7124 15.2278 81.2666 14.7316 80.6948 14.3784C80.1397 14.0083 79.4837 13.8233 78.7269 13.8233C78.0373 13.8233 77.3981 13.9747 76.8094 14.2774C76.2375 14.5802 75.7666 15.0259 75.3966 15.6146C75.0433 16.2033 74.8667 16.9097 74.8667 17.7339V18.7431C74.8667 19.5336 75.0518 20.2064 75.4218 20.7614C75.7918 21.3165 76.2712 21.7454 76.8599 22.0481C77.4486 22.3509 78.0709 22.5023 78.7269 22.5023ZM88.4962 25V11.3004H92.0031V25H88.4962ZM86.5788 13.9242V11.3004H92.0031V13.9242H86.5788ZM89.7829 9.66044C89.0933 9.66044 88.5803 9.48383 88.2439 9.13062C87.9243 8.76059 87.7646 8.30646 87.7646 7.76823C87.7646 7.19636 87.9243 6.73382 88.2439 6.3806C88.5803 6.02739 89.0933 5.85078 89.7829 5.85078C90.4725 5.85078 90.9771 6.02739 91.2967 6.3806C91.6163 6.73382 91.7761 7.19636 91.7761 7.76823C91.7761 8.30646 91.6163 8.76059 91.2967 9.13062C90.9771 9.48383 90.4725 9.66044 89.7829 9.66044ZM100.46 25.4541C99.5012 25.4541 98.6182 25.2775 97.8108 24.9243C97.0035 24.5711 96.3055 24.0749 95.7168 23.4358C95.1281 22.7966 94.674 22.0566 94.3544 21.2156C94.0348 20.3578 93.875 19.4327 93.875 18.4403V17.9105C93.875 16.935 94.0264 16.0183 94.3292 15.1605C94.6487 14.3027 95.086 13.5542 95.6411 12.9151C96.213 12.2759 96.8942 11.7797 97.6847 11.4265C98.492 11.0565 99.3835 10.8715 100.359 10.8715C101.435 10.8715 102.377 11.1069 103.185 11.5779C104.009 12.032 104.665 12.7216 105.153 13.6467C105.64 14.5718 105.91 15.7324 105.96 17.1284L104.926 15.9174V6.58244H108.432V25H105.657V19.172H106.263C106.212 20.568 105.926 21.737 105.405 22.6789C104.884 23.604 104.194 24.302 103.336 24.7729C102.495 25.2271 101.536 25.4541 100.46 25.4541ZM101.242 22.5023C101.932 22.5023 102.562 22.3509 103.134 22.0481C103.706 21.7286 104.16 21.2744 104.497 20.6857C104.85 20.0802 105.026 19.3738 105.026 18.5665V17.5573C105.026 16.7499 104.85 16.0772 104.497 15.5389C104.143 14.9839 103.681 14.5634 103.109 14.2774C102.537 13.9747 101.915 13.8233 101.242 13.8233C100.485 13.8233 99.8124 14.0083 99.2237 14.3784C98.6518 14.7316 98.1977 15.2362 97.8613 15.8921C97.5417 16.5481 97.3819 17.3134 97.3819 18.188C97.3819 19.0626 97.5501 19.8279 97.8865 20.4839C98.2229 21.1231 98.6771 21.6192 99.2489 21.9725C99.8376 22.3257 100.502 22.5023 101.242 22.5023ZM109.447 25L115.931 15.1857L115.956 15.6146L110.002 6.58244H113.988L117.975 12.7637H118.505L122.466 6.58244H126.301L120.271 15.6903L120.22 15.2614L126.856 25H122.895L118.252 18.0871H117.722L113.282 25H109.447Z" fill="white"/>
<defs>
<linearGradient id="paint0_linear_924_5139" x1="7.79688" y1="7.19531" x2="38.4048" y2="15.7763" gradientUnits="userSpaceOnUse">
<stop stop-color="#FF2020"/>
<stop offset="0.491467" stop-color="#EF325F"/>
<stop offset="1" stop-color="#59248A"/>
</linearGradient>
<linearGradient id="paint1_linear_924_5139" x1="4.26698" y1="-20.6429" x2="35.8368" y2="-17.215" gradientUnits="userSpaceOnUse">
<stop stop-color="#FF2020"/>
<stop offset="0.491467" stop-color="#EF325F"/>
<stop offset="1" stop-color="#59248A"/>
</linearGradient>
<linearGradient id="paint2_linear_924_5139" x1="-35.437" y1="-37.2171" x2="39.6637" y2="-25.0901" gradientUnits="userSpaceOnUse">
<stop stop-color="#FF2020"/>
<stop offset="0.491467" stop-color="#EF325F"/>
<stop offset="1" stop-color="#59248A"/>
</linearGradient>
<linearGradient id="paint3_linear_924_5139" x1="6.67188" y1="11.498" x2="13.6249" y2="20.0411" gradientUnits="userSpaceOnUse">
<stop stop-color="#F68B2E"/>
<stop offset="1" stop-color="#F6BB5C"/>
</linearGradient>
<linearGradient id="paint4_linear_924_5139" x1="17.404" y1="17.2826" x2="12.5108" y2="4.71528" gradientUnits="userSpaceOnUse">
<stop stop-color="#F68B2E"/>
<stop offset="1" stop-color="#F6BB5C"/>
</linearGradient>
<linearGradient id="paint5_linear_924_5139" x1="6.90829" y1="-0.0110619" x2="17.7617" y2="23.6009" gradientUnits="userSpaceOnUse">
<stop stop-color="#FF2020"/>
<stop offset="0.491467" stop-color="#EF325F"/>
<stop offset="1" stop-color="#59248A"/>
</linearGradient>
<linearGradient id="paint6_linear_924_5139" x1="16.8477" y1="11.1426" x2="18.7342" y2="12.8817" gradientUnits="userSpaceOnUse">
<stop stop-color="#F68B2E"/>
<stop offset="1" stop-color="#F6BB5C"/>
</linearGradient>
<linearGradient id="paint7_linear_924_5139" x1="5.4637" y1="-40.5189" x2="36.3689" y2="-30.8864" gradientUnits="userSpaceOnUse">
<stop stop-color="#FF2020"/>
<stop offset="0.491467" stop-color="#EF325F"/>
<stop offset="0.762175" stop-color="#59248A"/>
<stop offset="1" stop-color="#3B0F63"/>
</linearGradient>
<linearGradient id="paint8_linear_924_5139" x1="-5.61393" y1="-39.9529" x2="41.9339" y2="-10.6974" gradientUnits="userSpaceOnUse">
<stop stop-color="#FF2020"/>
<stop offset="0.491467" stop-color="#EF325F"/>
<stop offset="0.762175" stop-color="#59248A"/>
<stop offset="1" stop-color="#3B0F63"/>
</linearGradient>
</defs>
</svg>
